# xmcd
#
# Track frame offsets: 
#        150
#        13642
#        30019
#        54921
#        70926
#        83657
#        112099
#        125530
#        139557
#        158433
#        178631
#        194061
#        207043
#        224717
#        242122
#        256859
#        274631
#
# Disc length: 3936 seconds
#
# Revision: 0
# Processed by: cddbd v1.5.2PL0 Copyright (c) Steve Scherf et al.
# Submitted via: ExactAudioCopy v0.99pb5
#
DISCID=e70f5e11
DTITLE=Jimmy Lee Jones - Greatest Missed Hits
DYEAR=1900
DGENRE=Country
TTITLE0=Real-Go-Getter
TTITLE1=Must Not Be Drinkin Enough
TTITLE2=Ghost Riders Trilogy
TTITLE3=Valley Far Below
TTITLE4=Sittin on a Hill In Comfort, Texas
TTITLE5=Comanche Moon
TTITLE6=All For You
TTITLE7=Hondo
TTITLE8=Wind Blows Through West Texas
TTITLE9=Chiseled in Stone
TTITLE10=My Babys All Liquored Up
TTITLE11=Big In Texas
TTITLE12=I'm Not Leavin Texas
TTITLE13=Playing Jazz
TTITLE14=Honky Tonks Ain't Cheap
TTITLE15=Mary
TTITLE16=Wetback Tobacco
EXTD=
EXTT0=
EXTT1=
EXTT2=
EXTT3=
EXTT4=
EXTT5=
EXTT6=
EXTT7=
EXTT8=
EXTT9=
EXTT10=
EXTT11=
EXTT12=
EXTT13=
EXTT14=
EXTT15=
EXTT16=
PLAYORDER=
